<svg height="512pt" viewBox="0 0 512 512" width="512pt" xmlns="http://www.w3.org/2000/svg"><path d="m287.894531 0-20.015625 137.578125 244.121094-20.015625v-117.5625zm0 0" fill="#b4d2d7"/><path d="m287.894531 0h-224.109375v117.5625l224.109375 20.015625zm0 0" fill="#e1ebf0"/><path d="m287.894531 364.414062h224.105469v-246.851562h-224.105469l-20.015625 123.429688zm0 0" fill="#07485e"/><path d="m63.785156 117.5625h224.105469v246.851562h-224.105469zm0 0" fill="#0b799d"/><path d="m111.625 43.78125h31.890625v30h-31.890625zm0 0" fill="#ff4a4a"/><path d="m175.410156 43.78125h31.894532v30h-31.894532zm0 0" fill="#ffd422"/><path d="m239.195312 43.78125h31.894532v30h-31.894532zm0 0" fill="#00cc76"/><path d="m224.105469 147.585938-20.015625 137.578124 244.125-20.015624v-117.5625zm0 0" fill="#b4d2d7"/><path d="m224.105469 147.585938h-224.105469v117.5625l224.105469 20.015624zm0 0" fill="#e1ebf0"/><path d="m224.105469 512h224.109375v-246.851562h-224.109375l-20.015625 123.429687zm0 0" fill="#03232e"/><path d="m0 265.148438h224.105469v246.851562h-224.105469zm0 0" fill="#07485e"/><path d="m47.839844 191.367188h31.890625v30h-31.890625zm0 0" fill="#ff4a4a"/><path d="m111.625 191.367188h31.894531v30h-31.894531zm0 0" fill="#ffd422"/><path d="m175.410156 191.367188h31.894532v30h-31.894532zm0 0" fill="#00cc76"/><path d="m240.054688 373.574219h160.320312v30h-160.320312zm0 0" fill="#00cc76"/><path d="m47.839844 373.574219h160.320312v30h-160.320312zm0 0" fill="#00ff94"/><path d="m47.839844 309.789062h53.152344v30h-53.152344zm0 0" fill="#00ff94"/><path d="m347.222656 309.789062h53.152344v30h-53.152344zm0 0" fill="#00cc76"/><path d="m47.839844 437.359375h53.152344v30h-53.152344zm0 0" fill="#00ff94"/><g fill="#00cc76"><path d="m347.222656 437.359375h53.152344v30h-53.152344zm0 0"/><path d="m315.328125 309.789062h-91.222656l-10.007813 15 10.007813 15h91.222656zm0 0"/><path d="m315.328125 467.359375v-30h-91.222656l-10.007813 15 10.007813 15zm0 0"/></g><path d="m132.886719 309.789062h91.21875v30h-91.21875zm0 0" fill="#00ff94"/><path d="m132.886719 437.359375h91.21875v30h-91.21875zm0 0" fill="#00ff94"/></svg>